<svg width="150"  className="drawSQLIcon" xmlns="http://www.w3.org/2000/svg" viewBox="0 0 100 16.919531892950964" xmlns:xlink="http://www.w3.org/1999/xlink" version="1.1"><g transform="translate(19.22863467444067 13.31963149019544) scale(0.23499349851320775)" id="horizontalContainerlessSvgTemplate"><g fill="#FFFFFF"><g transform="translate(-84.63652482269504 -54.404255319148945) scale(2.8102836879432624)" id="logomark"><g fill="#FFFFFF"><path d="M22.5 5h-6a.5.5 0 0 0-.5.5v6a.5.5 0 0 0 .5.5H19v4.5c0 1.93-1.57 3.5-3.5 3.5h-4.793l1.146-1.146a.5.5 0 0 0-.707-.707l-2 2a.483.483 0 0 0-.133.287.49.49 0 0 0 .025.257v.001l.004.005a.476.476 0 0 0 .105.157l2 2a.498.498 0 0 0 .707 0 .5.5 0 0 0 0-.707L10.707 21H15.5c2.481 0 4.5-2.019 4.5-4.5V12h2.5a.5.5 0 0 0 .5-.5v-6a.5.5 0 0 0-.5-.5zM7.5 0h-6a.5.5 0 0 0-.5.5v6a.5.5 0 0 0 .5.5H4v7.293l-1.146-1.146a.5.5 0 0 0-.707.707l1.999 1.999a.504.504 0 0 0 .708 0l1.999-1.999a.5.5 0 0 0-.707-.707L5 14.293V7h2.5a.5.5 0 0 0 .5-.5v-6a.5.5 0 0 0-.5-.5zM7.5 17h-6a.5.5 0 0 0-.5.5v6a.5.5 0 0 0 .5.5h6a.5.5 0 0 0 .5-.5v-6a.5.5 0 0 0-.5-.5z"></path></g></g><g transform="translate(-3.4468085106382986 0) scale(1.0638297872340428)" fill="#FFFFFF"><g id="line1" fill="#FFFFFF"><path d="M3.240-14.184C3.240-4.320 8.424 0.720 16.488 0.720C20.736 0.720 24.264-0.720 26.568-3.528L28.080 0L41.760 0L41.760-9.000L36.000-9.000L36.000-53.280L19.800-53.280L19.800-44.280L25.560-44.280L25.560-34.920C23.256-37.080 20.160-38.160 16.416-38.160C8.424-38.160 3.240-33.120 3.240-23.256ZM13.680-23.976C13.680-27.504 15.984-29.160 19.584-29.160C23.184-29.160 25.560-27.504 25.560-23.976L25.560-13.464C25.560-9.936 23.184-8.280 19.656-8.280C15.984-8.280 13.680-9.936 13.680-13.464Z"></path><path d="M76.370-37.800C71.042-39.024 66.146-37.080 63.050-33.264L61.250-37.440L47.570-37.440L47.570-28.440L53.330-28.440L53.330-9.000L47.570-9.000L47.570 0L69.530 0L69.530-9.000L63.770-9.000L63.770-23.976C63.770-27.504 67.874-29.448 76.370-28.440Z"></path><path d="M80.741-11.016C80.741-3.240 85.781 0.720 93.485 0.720C98.165 0.720 101.837-0.720 104.069-3.528L105.581 0L118.541 0L118.541-9.000L113.501-9.000L113.501-24.120C113.501-33.408 107.381-38.160 98.021-38.160C87.941-38.160 82.541-33.696 82.541-25.560L92.981-25.560C92.981-28.368 94.277-29.592 98.021-29.592C101.117-29.592 103.061-27.792 103.061-24.768L103.061-19.584C100.829-21.672 97.517-22.752 93.557-22.752C85.781-22.752 80.741-18.792 80.741-11.016ZM91.181-11.376C91.181-13.536 93.485-14.472 97.085-14.472C100.685-14.472 103.061-13.536 103.061-11.376C103.061-9.216 100.685-8.280 97.085-8.280C93.485-8.280 91.181-9.216 91.181-11.376Z"></path><path d="M147.031 0L152.287-21.816L157.615 0L169.351 0L178.135-28.440L182.383-28.440L182.383-37.440L162.943-37.440L162.943-28.440L168.343-28.440L163.735-11.808L157.903-37.440L147.463-37.440L141.559-11.808L136.951-28.440L142.351-28.440L142.351-37.440L122.191-37.440L122.191-28.440L126.439-28.440L135.295 0Z"></path></g></g><g transform="translate(195.78042553191494 2.1316282072803006e-14) scale(1.063829787234043)" fill="#FFFFFF"><g id="line2" fill="#FFFFFF"><path d="M9.144-38.088C9.144-44.496 13.320-48.240 22.176-48.240C31.176-48.240 36.288-43.488 36.504-35.568L39.816-35.568L39.816-50.400L37.152-50.400L36.720-44.352C33.768-48.888 28.296-51.120 21.816-51.120C11.160-51.120 5.760-46.512 5.760-38.088C5.760-28.080 13.104-25.632 22.464-23.976C30.456-22.608 36.936-21.168 36.936-12.888C36.936-5.904 32.112-2.232 23.328-2.232C14.256-2.232 8.568-6.912 8.352-14.832L5.040-14.832L5.040 0L7.704 0L8.136-6.192C11.304-1.656 16.992 0.720 23.616 0.720C34.272 0.720 40.392-3.960 40.392-12.888C40.392-23.184 32.616-25.416 23.040-27.072C15.408-28.440 9.144-30.024 9.144-38.088Z"></path><path d="M85.370 14.400L87.746 12.024L75.938 0.360C85.298-1.080 90.698-7.272 90.698-17.280L90.698-33.192C90.698-44.568 83.570-51.120 71.546-51.120C59.522-51.120 52.322-44.568 52.322-33.192L52.322-17.280C52.322-5.832 59.522 0.720 71.474 0.720L71.762 0.720ZM87.386-17.280C87.386-7.776 81.554-2.232 71.474-2.232C61.538-2.232 55.634-7.776 55.634-17.280L55.634-33.192C55.634-42.624 61.538-48.240 71.546-48.240C81.554-48.240 87.386-42.624 87.386-33.192Z"></path><path d="M120.197-50.400L100.469-50.400L100.469-47.520L107.885-47.520L107.885-2.952L100.469-2.952L100.469 0L139.061 0L139.061-14.976L135.749-14.976L135.749-2.952L111.197-2.952L111.197-47.520L120.197-47.520Z"></path></g></g></g></g></svg>