<?xml version="1.0" encoding="utf-8"?><!-- Uploaded to: SVG Repo, www.svgrepo.com, Generator: SVG Repo Mixer Tools -->
<svg fill="#000000" width="800px" height="800px" viewBox="0 0 24 24" id="favourite-alt" xmlns="http://www.w3.org/2000/svg" class="icon multi-color"><path id="secondary-fill" d="M20.86,7.78C19.72,14.76,12,18,12,18S4.28,14.76,3.14,7.78A4.63,4.63,0,0,1,7.5,4,4.79,4.79,0,0,1,12,9a4.79,4.79,0,0,1,4.5-5A4.63,4.63,0,0,1,20.86,7.78Z" style="fill: rgb(44, 169, 188); stroke-width: 2;"></path><path id="primary-stroke" d="M21,9c0,8.18-9,12-9,12S3,17.22,3,9A4.79,4.79,0,0,1,7.5,4,4.79,4.79,0,0,1,12,9a4.79,4.79,0,0,1,4.5-5A4.79,4.79,0,0,1,21,9Z" style="fill: none; stroke: rgb(0, 0, 0); stroke-linecap: round; stroke-linejoin: round; stroke-width: 2;"></path></svg>