<?xml version="1.0" encoding="utf-8"?>

<!DOCTYPE svg PUBLIC "-//W3C//DTD SVG 1.1//EN" "http://www.w3.org/Graphics/SVG/1.1/DTD/svg11.dtd">
<!-- Uploaded to: SVG Repo, www.svgrepo.com, Generator: SVG Repo Mixer Tools -->
<svg version="1.1" id="SEARCH" xmlns="http://www.w3.org/2000/svg" xmlns:xlink="http://www.w3.org/1999/xlink" 
	 width="25px" height="25px" viewBox="0 0 1800 1800" enable-background="new 0 0 1800 1800" xml:space="preserve">
<g>
	<path fill="#333333" d="M1715.514,1630.048l-368.416-368.402c-17.967-17.977-41.866-27.874-67.281-27.874
		c-13.782,0-27.071,3.003-39.257,8.527l-94.596-94.594c133.584-119.751,217.789-293.534,217.789-486.634
		c0-360.375-293.193-653.561-653.572-653.561c-360.38,0-653.568,293.186-653.568,653.561c0,360.382,293.188,653.57,653.568,653.57
		c146.069,0,281.087-48.174,390.033-129.453l96.854,96.862c-8.041,14.144-12.399,30.159-12.399,46.869
		c0,25.42,9.897,49.314,27.868,67.283l368.407,368.423c17.972,17.968,41.862,27.865,67.283,27.865
		c25.42,0,49.318-9.902,67.29-27.874c17.972-17.971,27.869-41.867,27.869-67.287
		C1743.387,1671.914,1733.489,1648.02,1715.514,1630.048z M118.546,661.071c0-326.224,265.405-591.627,591.634-591.627
		c326.229,0,591.638,265.403,591.638,591.627c0,326.231-265.408,591.636-591.638,591.636
		C383.952,1252.707,118.546,987.302,118.546,661.071z M1671.72,1720.823c-6.272,6.277-14.62,9.733-23.492,9.733
		c-8.879,0-17.222-3.456-23.489-9.726l-368.407-368.424c-6.272-6.272-9.728-14.614-9.728-23.488c0-8.873,3.455-17.215,9.732-23.488
		c6.269-6.273,14.605-9.726,23.48-9.726c8.869,0,17.211,3.452,23.488,9.733l368.415,368.406c6.276,6.273,9.733,14.615,9.733,23.484
		C1681.453,1706.203,1677.996,1714.547,1671.72,1720.823z"/>
	<path fill="#333333" d="M733.941,187.121c145.201,0,427.813,158.624,427.813,449.396c0,17.104,13.863,30.967,30.968,30.967
		c17.104,0,30.968-13.863,30.968-30.967c0-145.848-64.515-281.118-181.66-380.892c-93.039-79.241-213.969-130.439-308.088-130.439
		c-17.104,0-30.967,13.864-30.967,30.967C702.974,173.257,716.838,187.121,733.941,187.121z"/>
</g>
</svg>